<svg xmlns="http://www.w3.org/2000/svg" viewBox="0 0 900 600" role="img" aria-label="Flag of United States">
  <rect y="0.000" width="900" height="46.654" fill="#b22234"/><rect y="46.154" width="900" height="46.654" fill="#fff"/><rect y="92.308" width="900" height="46.654" fill="#b22234"/><rect y="138.462" width="900" height="46.654" fill="#fff"/><rect y="184.615" width="900" height="46.654" fill="#b22234"/><rect y="230.769" width="900" height="46.654" fill="#fff"/><rect y="276.923" width="900" height="46.654" fill="#b22234"/><rect y="323.077" width="900" height="46.654" fill="#fff"/><rect y="369.231" width="900" height="46.654" fill="#b22234"/><rect y="415.385" width="900" height="46.654" fill="#fff"/><rect y="461.538" width="900" height="46.654" fill="#b22234"/><rect y="507.692" width="900" height="46.654" fill="#fff"/><rect y="553.846" width="900" height="46.654" fill="#b22234"/>
  <rect width="360" height="323.1" fill="#3c3b6e"/>
  <g fill="#fff"><polygon points="40.00,20.00 41.82,25.49 47.61,25.53 42.95,28.96 44.70,34.47 40.00,31.10 35.30,34.47 37.05,28.96 32.39,25.53 38.18,25.49"/><polygon points="98.00,20.00 99.82,25.49 105.61,25.53 100.95,28.96 102.70,34.47 98.00,31.10 93.30,34.47 95.05,28.96 90.39,25.53 96.18,25.49"/><polygon points="156.00,20.00 157.82,25.49 163.61,25.53 158.95,28.96 160.70,34.47 156.00,31.10 151.30,34.47 153.05,28.96 148.39,25.53 154.18,25.49"/><polygon points="214.00,20.00 215.82,25.49 221.61,25.53 216.95,28.96 218.70,34.47 214.00,31.10 209.30,34.47 211.05,28.96 206.39,25.53 212.18,25.49"/><polygon points="272.00,20.00 273.82,25.49 279.61,25.53 274.95,28.96 276.70,34.47 272.00,31.10 267.30,34.47 269.05,28.96 264.39,25.53 270.18,25.49"/><polygon points="330.00,20.00 331.82,25.49 337.61,25.53 332.95,28.96 334.70,34.47 330.00,31.10 325.30,34.47 327.05,28.96 322.39,25.53 328.18,25.49"/><polygon points="69.00,50.00 70.82,55.49 76.61,55.53 71.95,58.96 73.70,64.47 69.00,61.10 64.30,64.47 66.05,58.96 61.39,55.53 67.18,55.49"/><polygon points="127.00,50.00 128.82,55.49 134.61,55.53 129.95,58.96 131.70,64.47 127.00,61.10 122.30,64.47 124.05,58.96 119.39,55.53 125.18,55.49"/><polygon points="185.00,50.00 186.82,55.49 192.61,55.53 187.95,58.96 189.70,64.47 185.00,61.10 180.30,64.47 182.05,58.96 177.39,55.53 183.18,55.49"/><polygon points="243.00,50.00 244.82,55.49 250.61,55.53 245.95,58.96 247.70,64.47 243.00,61.10 238.30,64.47 240.05,58.96 235.39,55.53 241.18,55.49"/><polygon points="301.00,50.00 302.82,55.49 308.61,55.53 303.95,58.96 305.70,64.47 301.00,61.10 296.30,64.47 298.05,58.96 293.39,55.53 299.18,55.49"/><polygon points="40.00,80.00 41.82,85.49 47.61,85.53 42.95,88.96 44.70,94.47 40.00,91.10 35.30,94.47 37.05,88.96 32.39,85.53 38.18,85.49"/><polygon points="98.00,80.00 99.82,85.49 105.61,85.53 100.95,88.96 102.70,94.47 98.00,91.10 93.30,94.47 95.05,88.96 90.39,85.53 96.18,85.49"/><polygon points="156.00,80.00 157.82,85.49 163.61,85.53 158.95,88.96 160.70,94.47 156.00,91.10 151.30,94.47 153.05,88.96 148.39,85.53 154.18,85.49"/><polygon points="214.00,80.00 215.82,85.49 221.61,85.53 216.95,88.96 218.70,94.47 214.00,91.10 209.30,94.47 211.05,88.96 206.39,85.53 212.18,85.49"/><polygon points="272.00,80.00 273.82,85.49 279.61,85.53 274.95,88.96 276.70,94.47 272.00,91.10 267.30,94.47 269.05,88.96 264.39,85.53 270.18,85.49"/><polygon points="330.00,80.00 331.82,85.49 337.61,85.53 332.95,88.96 334.70,94.47 330.00,91.10 325.30,94.47 327.05,88.96 322.39,85.53 328.18,85.49"/><polygon points="69.00,110.00 70.82,115.49 76.61,115.53 71.95,118.96 73.70,124.47 69.00,121.10 64.30,124.47 66.05,118.96 61.39,115.53 67.18,115.49"/><polygon points="127.00,110.00 128.82,115.49 134.61,115.53 129.95,118.96 131.70,124.47 127.00,121.10 122.30,124.47 124.05,118.96 119.39,115.53 125.18,115.49"/><polygon points="185.00,110.00 186.82,115.49 192.61,115.53 187.95,118.96 189.70,124.47 185.00,121.10 180.30,124.47 182.05,118.96 177.39,115.53 183.18,115.49"/><polygon points="243.00,110.00 244.82,115.49 250.61,115.53 245.95,118.96 247.70,124.47 243.00,121.10 238.30,124.47 240.05,118.96 235.39,115.53 241.18,115.49"/><polygon points="301.00,110.00 302.82,115.49 308.61,115.53 303.95,118.96 305.70,124.47 301.00,121.10 296.30,124.47 298.05,118.96 293.39,115.53 299.18,115.49"/><polygon points="40.00,140.00 41.82,145.49 47.61,145.53 42.95,148.96 44.70,154.47 40.00,151.10 35.30,154.47 37.05,148.96 32.39,145.53 38.18,145.49"/><polygon points="98.00,140.00 99.82,145.49 105.61,145.53 100.95,148.96 102.70,154.47 98.00,151.10 93.30,154.47 95.05,148.96 90.39,145.53 96.18,145.49"/><polygon points="156.00,140.00 157.82,145.49 163.61,145.53 158.95,148.96 160.70,154.47 156.00,151.10 151.30,154.47 153.05,148.96 148.39,145.53 154.18,145.49"/><polygon points="214.00,140.00 215.82,145.49 221.61,145.53 216.95,148.96 218.70,154.47 214.00,151.10 209.30,154.47 211.05,148.96 206.39,145.53 212.18,145.49"/><polygon points="272.00,140.00 273.82,145.49 279.61,145.53 274.95,148.96 276.70,154.47 272.00,151.10 267.30,154.47 269.05,148.96 264.39,145.53 270.18,145.49"/><polygon points="330.00,140.00 331.82,145.49 337.61,145.53 332.95,148.96 334.70,154.47 330.00,151.10 325.30,154.47 327.05,148.96 322.39,145.53 328.18,145.49"/><polygon points="69.00,170.00 70.82,175.49 76.61,175.53 71.95,178.96 73.70,184.47 69.00,181.10 64.30,184.47 66.05,178.96 61.39,175.53 67.18,175.49"/><polygon points="127.00,170.00 128.82,175.49 134.61,175.53 129.95,178.96 131.70,184.47 127.00,181.10 122.30,184.47 124.05,178.96 119.39,175.53 125.18,175.49"/><polygon points="185.00,170.00 186.82,175.49 192.61,175.53 187.95,178.96 189.70,184.47 185.00,181.10 180.30,184.47 182.05,178.96 177.39,175.53 183.18,175.49"/><polygon points="243.00,170.00 244.82,175.49 250.61,175.53 245.95,178.96 247.70,184.47 243.00,181.10 238.30,184.47 240.05,178.96 235.39,175.53 241.18,175.49"/><polygon points="301.00,170.00 302.82,175.49 308.61,175.53 303.95,178.96 305.70,184.47 301.00,181.10 296.30,184.47 298.05,178.96 293.39,175.53 299.18,175.49"/><polygon points="40.00,200.00 41.82,205.49 47.61,205.53 42.95,208.96 44.70,214.47 40.00,211.10 35.30,214.47 37.05,208.96 32.39,205.53 38.18,205.49"/><polygon points="98.00,200.00 99.82,205.49 105.61,205.53 100.95,208.96 102.70,214.47 98.00,211.10 93.30,214.47 95.05,208.96 90.39,205.53 96.18,205.49"/><polygon points="156.00,200.00 157.82,205.49 163.61,205.53 158.95,208.96 160.70,214.47 156.00,211.10 151.30,214.47 153.05,208.96 148.39,205.53 154.18,205.49"/><polygon points="214.00,200.00 215.82,205.49 221.61,205.53 216.95,208.96 218.70,214.47 214.00,211.10 209.30,214.47 211.05,208.96 206.39,205.53 212.18,205.49"/><polygon points="272.00,200.00 273.82,205.49 279.61,205.53 274.95,208.96 276.70,214.47 272.00,211.10 267.30,214.47 269.05,208.96 264.39,205.53 270.18,205.49"/><polygon points="330.00,200.00 331.82,205.49 337.61,205.53 332.95,208.96 334.70,214.47 330.00,211.10 325.30,214.47 327.05,208.96 322.39,205.53 328.18,205.49"/><polygon points="69.00,230.00 70.82,235.49 76.61,235.53 71.95,238.96 73.70,244.47 69.00,241.10 64.30,244.47 66.05,238.96 61.39,235.53 67.18,235.49"/><polygon points="127.00,230.00 128.82,235.49 134.61,235.53 129.95,238.96 131.70,244.47 127.00,241.10 122.30,244.47 124.05,238.96 119.39,235.53 125.18,235.49"/><polygon points="185.00,230.00 186.82,235.49 192.61,235.53 187.95,238.96 189.70,244.47 185.00,241.10 180.30,244.47 182.05,238.96 177.39,235.53 183.18,235.49"/><polygon points="243.00,230.00 244.82,235.49 250.61,235.53 245.95,238.96 247.70,244.47 243.00,241.10 238.30,244.47 240.05,238.96 235.39,235.53 241.18,235.49"/><polygon points="301.00,230.00 302.82,235.49 308.61,235.53 303.95,238.96 305.70,244.47 301.00,241.10 296.30,244.47 298.05,238.96 293.39,235.53 299.18,235.49"/><polygon points="40.00,260.00 41.82,265.49 47.61,265.53 42.95,268.96 44.70,274.47 40.00,271.10 35.30,274.47 37.05,268.96 32.39,265.53 38.18,265.49"/><polygon points="98.00,260.00 99.82,265.49 105.61,265.53 100.95,268.96 102.70,274.47 98.00,271.10 93.30,274.47 95.05,268.96 90.39,265.53 96.18,265.49"/><polygon points="156.00,260.00 157.82,265.49 163.61,265.53 158.95,268.96 160.70,274.47 156.00,271.10 151.30,274.47 153.05,268.96 148.39,265.53 154.18,265.49"/><polygon points="214.00,260.00 215.82,265.49 221.61,265.53 216.95,268.96 218.70,274.47 214.00,271.10 209.30,274.47 211.05,268.96 206.39,265.53 212.18,265.49"/><polygon points="272.00,260.00 273.82,265.49 279.61,265.53 274.95,268.96 276.70,274.47 272.00,271.10 267.30,274.47 269.05,268.96 264.39,265.53 270.18,265.49"/><polygon points="330.00,260.00 331.82,265.49 337.61,265.53 332.95,268.96 334.70,274.47 330.00,271.10 325.30,274.47 327.05,268.96 322.39,265.53 328.18,265.49"/></g>
</svg>
